<mxfile host="app.diagrams.net" modified="2020-11-02T09:27:50.373Z" agent="5.0 (Windows NT 10.0; Win64; x64) AppleWebKit/537.36 (KHTML, like Gecko) Chrome/86.0.4240.111 Safari/537.36" etag="9xRwgsCUonAJI-CuiMFg" version="13.8.8" type="github">
  <diagram id="zZ3Ky3CjrjxnaVZpWhUm" name="Page-1">
    <mxGraphModel dx="1422" dy="762" grid="1" gridSize="10" guides="1" tooltips="1" connect="1" arrows="1" fold="1" page="1" pageScale="1" pageWidth="827" pageHeight="1169" math="0" shadow="0">
      <root>
        <mxCell id="0" />
        <mxCell id="1" parent="0" />
        <mxCell id="BryVP8b3oICQiiZssQxs-14" style="edgeStyle=orthogonalEdgeStyle;rounded=0;orthogonalLoop=1;jettySize=auto;html=1;entryX=0.5;entryY=1;entryDx=0;entryDy=0;" edge="1" parent="1" source="BryVP8b3oICQiiZssQxs-2" target="BryVP8b3oICQiiZssQxs-4">
          <mxGeometry relative="1" as="geometry" />
        </mxCell>
        <mxCell id="BryVP8b3oICQiiZssQxs-15" style="edgeStyle=orthogonalEdgeStyle;rounded=0;orthogonalLoop=1;jettySize=auto;html=1;exitX=0.75;exitY=0;exitDx=0;exitDy=0;entryX=0.56;entryY=1.025;entryDx=0;entryDy=0;entryPerimeter=0;" edge="1" parent="1" source="BryVP8b3oICQiiZssQxs-2" target="BryVP8b3oICQiiZssQxs-12">
          <mxGeometry relative="1" as="geometry" />
        </mxCell>
        <mxCell id="BryVP8b3oICQiiZssQxs-2" value="BaseActivity" style="rounded=0;whiteSpace=wrap;html=1;" vertex="1" parent="1">
          <mxGeometry x="290" y="330" width="120" height="60" as="geometry" />
        </mxCell>
        <mxCell id="BryVP8b3oICQiiZssQxs-3" value="IBaseContract" style="rounded=0;whiteSpace=wrap;html=1;" vertex="1" parent="1">
          <mxGeometry x="280" y="30" width="150" height="50" as="geometry" />
        </mxCell>
        <mxCell id="BryVP8b3oICQiiZssQxs-9" style="edgeStyle=orthogonalEdgeStyle;rounded=0;orthogonalLoop=1;jettySize=auto;html=1;exitX=0.5;exitY=0;exitDx=0;exitDy=0;entryX=0.5;entryY=1;entryDx=0;entryDy=0;" edge="1" parent="1" source="BryVP8b3oICQiiZssQxs-4" target="BryVP8b3oICQiiZssQxs-3">
          <mxGeometry relative="1" as="geometry" />
        </mxCell>
        <mxCell id="BryVP8b3oICQiiZssQxs-4" value="IBaseView" style="rounded=0;whiteSpace=wrap;html=1;" vertex="1" parent="1">
          <mxGeometry x="210" y="180" width="120" height="40" as="geometry" />
        </mxCell>
        <mxCell id="BryVP8b3oICQiiZssQxs-13" style="edgeStyle=orthogonalEdgeStyle;rounded=0;orthogonalLoop=1;jettySize=auto;html=1;entryX=0.75;entryY=1;entryDx=0;entryDy=0;" edge="1" parent="1" source="BryVP8b3oICQiiZssQxs-12" target="BryVP8b3oICQiiZssQxs-3">
          <mxGeometry relative="1" as="geometry" />
        </mxCell>
        <mxCell id="BryVP8b3oICQiiZssQxs-12" value="&lt;span&gt;IBasePresenter&lt;/span&gt;" style="rounded=0;whiteSpace=wrap;html=1;" vertex="1" parent="1">
          <mxGeometry x="380" y="180" width="150" height="40" as="geometry" />
        </mxCell>
        <mxCell id="BryVP8b3oICQiiZssQxs-17" style="edgeStyle=orthogonalEdgeStyle;rounded=0;orthogonalLoop=1;jettySize=auto;html=1;entryX=1;entryY=0.5;entryDx=0;entryDy=0;" edge="1" parent="1" source="BryVP8b3oICQiiZssQxs-16" target="BryVP8b3oICQiiZssQxs-12">
          <mxGeometry relative="1" as="geometry" />
        </mxCell>
        <mxCell id="BryVP8b3oICQiiZssQxs-18" style="edgeStyle=orthogonalEdgeStyle;rounded=0;orthogonalLoop=1;jettySize=auto;html=1;entryX=0;entryY=0.5;entryDx=0;entryDy=0;" edge="1" parent="1" source="BryVP8b3oICQiiZssQxs-16" target="BryVP8b3oICQiiZssQxs-4">
          <mxGeometry relative="1" as="geometry">
            <Array as="points">
              <mxPoint x="650" y="480" />
              <mxPoint x="190" y="480" />
              <mxPoint x="190" y="200" />
            </Array>
          </mxGeometry>
        </mxCell>
        <mxCell id="BryVP8b3oICQiiZssQxs-16" value="BaseFragment" style="rounded=0;whiteSpace=wrap;html=1;" vertex="1" parent="1">
          <mxGeometry x="590" y="325" width="120" height="55" as="geometry" />
        </mxCell>
      </root>
    </mxGraphModel>
  </diagram>
</mxfile>
